<svg width="64" height="65" viewBox="0 0 64 65" fill="none" xmlns="http://www.w3.org/2000/svg">
<g clip-path="url(#clip0_6912_5513)">
<path opacity="0.2" d="M33.1028 48.1832L45.7116 56.1716C47.3234 57.1927 49.3244 55.674 48.8462 53.7927L45.2032 39.4621C45.1006 39.0629 45.1128 38.6429 45.2383 38.2504C45.3638 37.8578 45.5975 37.5087 45.9126 37.2431L57.2194 27.8322C58.7051 26.5957 57.9383 24.13 56.0295 24.0062L41.2635 23.0478C40.8658 23.0194 40.4843 22.8786 40.1636 22.6418C39.8428 22.405 39.5958 22.0819 39.4516 21.7102L33.9445 7.84194C33.7948 7.44741 33.5286 7.10774 33.1813 6.86805C32.834 6.62837 32.422 6.5 32 6.5C31.578 6.5 31.166 6.62837 30.8187 6.86805C30.4714 7.10774 30.2052 7.44741 30.0556 7.84194L24.5485 21.7102C24.4042 22.0819 24.1573 22.405 23.8365 22.6418C23.5157 22.8786 23.1342 23.0194 22.7365 23.0478L7.97051 24.0062C6.06174 24.13 5.29493 26.5957 6.7806 27.8322L18.0874 37.2431C18.4025 37.5087 18.6363 37.8578 18.7618 38.2504C18.8872 38.6429 18.8994 39.0629 18.7968 39.4621L15.4184 52.7521C14.8444 55.0097 17.2457 56.8322 19.1798 55.6068L30.8972 48.1832C31.2268 47.9734 31.6094 47.8619 32 47.8619C32.3907 47.8619 32.7732 47.9734 33.1028 48.1832V48.1832Z" fill="black"/>
<path d="M33.1028 48.1832L45.7116 56.1716C47.3234 57.1927 49.3244 55.674 48.8462 53.7927L45.2032 39.4621C45.1006 39.0629 45.1128 38.6429 45.2383 38.2504C45.3638 37.8578 45.5975 37.5087 45.9126 37.2431L57.2194 27.8322C58.7051 26.5957 57.9383 24.13 56.0295 24.0062L41.2635 23.0478C40.8658 23.0194 40.4843 22.8786 40.1636 22.6418C39.8428 22.405 39.5958 22.0819 39.4516 21.7102L33.9445 7.84194C33.7948 7.44741 33.5286 7.10774 33.1813 6.86805C32.834 6.62837 32.422 6.5 32 6.5C31.578 6.5 31.166 6.62837 30.8187 6.86805C30.4714 7.10774 30.2052 7.44741 30.0556 7.84194L24.5485 21.7102C24.4042 22.0819 24.1573 22.405 23.8365 22.6418C23.5157 22.8786 23.1342 23.0194 22.7365 23.0478L7.97051 24.0062C6.06174 24.13 5.29493 26.5957 6.7806 27.8322L18.0874 37.2431C18.4025 37.5087 18.6363 37.8578 18.7618 38.2504C18.8872 38.6429 18.8994 39.0629 18.7968 39.4621L15.4184 52.7521C14.8444 55.0097 17.2457 56.8322 19.1798 55.6068L30.8972 48.1832C31.2268 47.9734 31.6094 47.8619 32 47.8619C32.3907 47.8619 32.7732 47.9734 33.1028 48.1832V48.1832Z" stroke="black" stroke-width="1.5" stroke-linecap="round" stroke-linejoin="round"/>
</g>
<defs>
<clipPath id="clip0_6912_5513">
<rect width="64" height="64" fill="white" transform="translate(0 0.5)"/>
</clipPath>
</defs>
</svg>
